<?xml version="1.0" encoding="iso-8859-1"?>
<!-- Uploaded to: SVG Repo, www.svgrepo.com, Generator: SVG Repo Mixer Tools -->
<!DOCTYPE svg PUBLIC "-//W3C//DTD SVG 1.1//EN" "http://www.w3.org/Graphics/SVG/1.1/DTD/svg11.dtd">
<svg fill="#BF4D40" height="800px" width="800px" version="1.1" id="Capa_1" xmlns="http://www.w3.org/2000/svg" xmlns:xlink="http://www.w3.org/1999/xlink" 
	 viewBox="0 0 294.773 294.773" xml:space="preserve">
<g>
	<path d="M39.776,198.5h77.344c1.52-8.289,2.603-16.675,3.067-25H36.709C37.175,181.825,38.257,190.211,39.776,198.5z"/>
	<path d="M111.723,92.5H45.174c-2.099,7.646-3.871,16.032-5.259,25h77.066C115.594,108.532,113.821,100.146,111.723,92.5z"/>
	<path d="M38.012,132.5c-0.833,8.33-1.35,17.033-1.51,26h83.893c-0.16-8.967-0.677-17.67-1.51-26H38.012z"/>
	<path d="M72.352,291.027c1.162,2.3,3.522,3.747,6.1,3.746c2.577-0.001,4.935-1.451,6.097-3.752
		c4.406-8.72,10.616-21.868,16.636-37.522H55.713C61.733,269.156,67.945,282.307,72.352,291.027z"/>
	<path d="M106.82,77.5c-2.771-7.136-5.594-13.238-9.594-18.097V34.27c0-4.439-1.772-8.77-6.214-8.77h-5.786v-18
		c0-4.143-3.357-7.5-7.5-7.5s-7.5,3.357-7.5,7.5v18h-4.403c-4.441,0-7.597,4.33-7.597,8.77v26.279
		c-3,4.659-5.594,10.366-8.15,16.951H106.82z"/>
	<path d="M50.308,238.5h56.282c2.68-7.976,5.178-16.374,7.3-25H43.007C45.129,222.125,47.627,230.523,50.308,238.5z"/>
	<path d="M235.227,59.396V34.27c0-4.439-1.773-8.77-6.214-8.77h-5.786v-18c0-4.143-3.357-7.5-7.5-7.5c-4.143,0-7.5,3.357-7.5,7.5v18
		h-4.403c-4.441,0-7.597,4.33-7.597,8.77v26.278c-13,19.921-21.945,58.999-21.945,103.952c0,49.528,24.342,103.481,35.987,126.527
		c1.162,2.3,3.564,3.747,6.141,3.746c2.577-0.001,4.955-1.451,6.118-3.752c11.646-23.048,35.744-76.996,35.744-126.522
		C258.271,118.667,249.227,78.938,235.227,59.396z M224.896,73.215c6.258,0,11.331,5.073,11.331,11.331
		c0,6.258-5.073,11.331-11.331,11.331c-6.259,0-11.331-5.073-11.331-11.331C213.564,78.288,218.637,73.215,224.896,73.215z
		 M200.896,113.215c6.258,0,11.331,5.073,11.331,11.331s-5.073,11.331-11.331,11.331c-6.259,0-11.331-5.073-11.331-11.331
		S194.637,113.215,200.896,113.215z M192.564,194.546c0-6.258,5.072-11.331,11.331-11.331c6.258,0,11.331,5.073,11.331,11.331
		s-5.073,11.331-11.331,11.331C197.637,205.877,192.564,200.804,192.564,194.546z M216.896,248.877
		c-6.259,0-11.331-5.073-11.331-11.331s5.072-11.331,11.331-11.331c6.258,0,11.331,5.073,11.331,11.331
		S223.153,248.877,216.896,248.877z M227.896,168.877c-6.259,0-11.331-5.073-11.331-11.331s5.072-11.331,11.331-11.331
		c6.258,0,11.331,5.073,11.331,11.331S234.153,168.877,227.896,168.877z"/>
</g>
</svg>