<?xml version="1.0" encoding="iso-8859-1"?>
<!-- Uploaded to: SVG Repo, www.svgrepo.com, Generator: SVG Repo Mixer Tools -->
<!DOCTYPE svg PUBLIC "-//W3C//DTD SVG 1.1//EN" "http://www.w3.org/Graphics/SVG/1.1/DTD/svg11.dtd">
<svg fill="#F4EAD1" version="1.1" id="Capa_1" xmlns="http://www.w3.org/2000/svg" xmlns:xlink="http://www.w3.org/1999/xlink" 
	 width="800px" height="800px" viewBox="0 0 38 38" xml:space="preserve">
<g>
	<g>
		<g>
			<polygon points="19,0 19.917,1.858 21.967,2.156 20.482,3.602 20.834,5.643 19,4.679 17.167,5.643 17.517,3.602 16.034,2.156 
				18.083,1.858 			"/>
		</g>
		<g>
			<path d="M33,32.578l-6.322-6.322h5.266l-6.489-6.488h4.331l-5.407-5.407h2.888L19,6.097l-8.265,8.264h2.888l-5.407,5.407h4.331
				l-6.488,6.488h5.264L5,32.578h12.301L16.323,38h5.354l-0.978-5.422H33z M23.902,27.416l0.205,0.416l0.457,0.066l-0.332,0.324
				l0.08,0.455l-0.41-0.216l-0.41,0.216l0.078-0.455l-0.332-0.324l0.459-0.066L23.902,27.416z M20.73,13.404l0.459-0.931
				l0.459,0.931l1.027,0.149l-0.742,0.725l0.176,1.022l-0.92-0.483L20.271,15.3l0.176-1.022l-0.743-0.725L20.73,13.404z
				 M18.781,9.771l0.205-0.416l0.205,0.416l0.458,0.066l-0.332,0.324l0.079,0.456l-0.41-0.216l-0.41,0.216l0.078-0.456l-0.331-0.324
				L18.781,9.771z M16.396,15.837l0.31-0.627l0.31,0.627l0.692,0.101l-0.5,0.488l0.118,0.689l-0.619-0.325l-0.619,0.325l0.118-0.689
				l-0.5-0.488L16.396,15.837z M18.911,29.584l-2.003-1.053l-2.003,1.053l0.382-2.229l-1.618-1.582l2.239-0.324l1-2.029l1.002,2.029
				l2.238,0.324l-1.621,1.582L18.911,29.584z M19.421,19.773l1.463-0.213l0.653-1.326l0.654,1.326l1.463,0.213l-1.059,1.031
				l0.25,1.457l-1.309-0.688l-1.309,0.688l0.25-1.457L19.421,19.773z"/>
		</g>
	</g>
</g>
</svg>